# xmcd
#
# Track frame offsets:
#	182
#	16957
#	38322
#	61990
#	78047
#	100890
#	124070
#	149472
#	170087
#	186787
#	208310
#	228835
#	247677
#
# Disc length: 3505 seconds
#
# Revision: 1
# Processed by: cddbd v1.4PL0 Copyright (c) Steve Scherf et al.
# Submitted via: audiograbber 1.81.01
#
DISCID=a10daf0d
DTITLE=Martin Cech - Fletna - Pan Pipe
DYEAR=2000
DGENRE=Instrumental
TTITLE0=Promise Me
TTITLE1=Wonderful Life
TTITLE2=Living On My Own
TTITLE3=Fields Of Gold
TTITLE4=Who's That Girl
TTITLE5=Sacrifice
TTITLE6=Why Worry
TTITLE7=All Through The Night
TTITLE8=Klaster v Opatstvi
TTITLE9=Turn Of Friendly Cards
TTITLE10=Snowbound
TTITLE11=Imagine
TTITLE12=Greensleeves
EXTD=Master Music Ltd.\nPrague
EXTT0=
EXTT1=
EXTT2=
EXTT3=
EXTT4=
EXTT5=
EXTT6=
EXTT7=
EXTT8=
EXTT9=
EXTT10=
EXTT11=
EXTT12=
PLAYORDER=
